<?xml version="1.0" standalone="no"?>
<!DOCTYPE svg PUBLIC "-//W3C//DTD SVG 20010904//EN"
 "http://www.w3.org/TR/2001/REC-SVG-20010904/DTD/svg10.dtd">
<svg version="1.0" xmlns="http://www.w3.org/2000/svg"
 width="907.000000pt" height="832.000000pt" viewBox="0 0 907.000000 832.000000"
 preserveAspectRatio="xMidYMid meet">

<g transform="translate(0.000000,832.000000) scale(0.100000,-0.100000)"
fill="#000000" stroke="none">
<path d="M4234 8181 l-121 -6 -54 -59 c-30 -32 -60 -67 -67 -78 -11 -15 -11
-100 -3 -471 6 -248 13 -485 15 -526 l5 -74 68 -70 68 -69 220 6 220 6 68 72
67 72 -1 130 c0 72 -6 312 -12 533 l-12 402 -70 71 -69 70 -101 -2 c-55 -1
-154 -4 -221 -7z m255 -662 c7 -248 10 -454 6 -457 -4 -4 -64 -9 -135 -10
l-128 -4 -6 54 c-3 29 -8 175 -11 323 -3 149 -8 329 -11 402 l-6 132 53 4 c30
2 93 4 140 5 l85 2 13 -451z"/>
<path d="M5661 7977 c-17 -51 -31 -97 -31 -104 0 -6 19 -18 43 -26 32 -11 41
-18 39 -33 -2 -10 -62 -206 -132 -434 -88 -287 -132 -415 -142 -414 -7 1 -29
5 -49 9 l-37 7 -30 -99 c-17 -54 -28 -101 -24 -104 7 -6 371 -119 384 -119 5
0 68 186 68 202 0 3 -18 10 -40 17 -21 6 -41 15 -43 19 -9 15 89 297 103 300
46 9 55 -23 115 -403 15 -93 29 -179 31 -191 4 -16 27 -28 109 -54 58 -19 106
-32 108 -29 10 10 57 166 57 186 0 17 -9 25 -40 34 -22 7 -42 19 -44 28 -9 28
-56 334 -53 337 2 2 19 -1 39 -7 33 -8 43 -6 103 27 37 20 71 46 76 58 17 39
159 513 159 530 0 21 -41 104 -66 133 -17 19 -300 114 -611 203 l-62 18 -30
-91z m403 -248 c55 -17 107 -33 114 -35 6 -2 12 -10 12 -18 0 -15 -98 -337
-104 -344 -5 -5 -248 69 -260 79 -5 5 0 33 12 66 12 32 35 104 52 161 16 57
32 107 35 113 10 14 30 11 139 -22z"/>
<path d="M2550 7843 c-173 -63 -317 -117 -319 -119 -5 -5 60 -193 69 -199 4
-3 24 2 44 10 19 8 39 15 44 15 5 0 21 -35 35 -77 13 -43 59 -172 100 -288 42
-115 96 -266 120 -335 25 -69 48 -132 52 -141 4 -12 -5 -20 -40 -34 -26 -9
-44 -22 -42 -29 2 -6 16 -48 32 -94 15 -46 34 -86 41 -89 8 -3 98 25 199 62
144 53 185 72 185 85 0 25 -61 190 -70 190 -4 0 -24 -7 -45 -16 -21 -8 -41
-12 -45 -7 -7 8 -106 282 -112 312 -2 9 46 31 156 71 87 32 166 67 175 77 9
10 32 50 50 88 l33 70 -83 235 c-45 129 -86 241 -92 248 -10 12 -153 83 -166
81 -3 0 -148 -52 -321 -116z m366 -273 c30 -80 52 -151 51 -159 -2 -12 -244
-107 -252 -99 -10 10 -105 302 -102 312 4 12 214 95 236 93 8 -1 35 -60 67
-147z"/>
<path d="M7403 7298 c-17 -24 -78 -106 -137 -183 -58 -77 -106 -145 -106 -151
0 -11 128 -110 155 -120 7 -3 43 36 84 90 39 53 78 96 85 96 16 0 95 -61 95
-74 1 -5 -74 -109 -166 -230 -92 -122 -215 -283 -272 -359 l-104 -137 -33 25
c-18 14 -39 25 -46 25 -10 0 -115 -133 -126 -161 -3 -8 312 -249 327 -249 6 0
38 37 72 82 l62 82 -39 32 -38 32 25 35 c13 19 67 91 119 159 52 67 161 211
242 320 81 108 152 199 158 203 11 7 79 -34 101 -61 8 -10 -7 -36 -65 -113
-42 -55 -76 -102 -76 -105 0 -11 161 -127 169 -122 5 3 71 88 146 188 97 128
135 185 129 195 -10 14 -714 543 -724 543 -3 0 -20 -19 -37 -42z"/>
<path d="M1180 7101 c-223 -177 -296 -239 -307 -261 -6 -14 -14 -54 -18 -90
l-7 -65 137 -175 c190 -242 172 -226 271 -240 54 -8 89 -9 97 -3 6 6 77 61
155 123 80 62 147 109 150 103 4 -5 53 -68 110 -140 56 -72 102 -137 101 -144
0 -13 -190 -168 -215 -176 -6 -2 -32 24 -58 57 -38 48 -51 58 -64 51 -24 -13
-146 -111 -150 -120 -1 -5 18 -35 42 -67 93 -122 85 -116 172 -130 130 -21
117 -26 286 107 84 67 160 129 169 139 10 12 20 55 28 122 13 120 35 77 -172
340 -82 103 -148 179 -161 181 -11 3 -50 8 -86 12 l-66 7 -154 -121 c-124 -99
-156 -119 -166 -109 -32 33 -184 234 -183 243 0 12 196 166 218 172 10 3 30
-15 55 -47 21 -27 42 -53 48 -56 10 -6 158 103 165 123 3 6 -19 42 -48 80 -86
113 -94 120 -152 127 -29 3 -68 8 -87 11 -31 4 -44 -2 -110 -54z"/>
<path d="M3333 5421 c-18 -11 -43 -36 -55 -56 -19 -29 -29 -35 -60 -35 -47 0
-94 -38 -119 -97 -11 -26 -25 -43 -35 -43 -34 0 -87 -43 -108 -89 -18 -39 -21
-68 -23 -194 -3 -141 -4 -150 -25 -167 -19 -15 -23 -27 -22 -77 1 -67 33 -150
61 -159 38 -12 45 -21 80 -109 43 -108 86 -178 138 -223 33 -30 43 -33 84 -30
38 2 52 -2 81 -24 64 -49 114 -59 164 -33 26 14 34 13 81 -1 113 -36 188 17
240 167 29 81 30 90 29 272 0 103 1 187 1 187 1 0 28 5 60 11 69 13 75 8 75
-66 1 -80 26 -181 65 -253 l35 -66 0 -258 c0 -302 -15 -272 148 -293 139 -19
341 -19 465 0 151 23 137 -5 137 280 l0 244 58 43 c121 89 196 184 232 294 18
53 25 64 44 64 l23 0 -5 -153 c-5 -177 6 -261 47 -351 36 -77 68 -111 121
-127 34 -10 50 -10 83 0 53 16 72 16 124 0 36 -11 46 -10 82 5 22 10 50 29 62
42 18 20 28 22 65 17 33 -4 50 -1 78 17 56 34 126 147 171 275 15 42 27 61 40
63 31 6 53 30 69 80 28 81 16 172 -23 172 -4 0 -8 57 -7 128 1 78 -4 147 -13
181 -17 65 -61 118 -105 127 -28 5 -37 14 -55 55 -28 62 -62 89 -112 89 -32 0
-40 5 -59 35 -44 71 -136 93 -217 54 -87 -42 -208 -230 -268 -418 l-27 -83
-36 6 c-41 6 -48 14 -56 69 -5 32 -18 51 -56 86 -38 36 -53 60 -70 111 -26 78
-49 112 -96 141 -31 19 -46 21 -110 17 -64 -4 -81 -2 -121 18 -59 31 -107 30
-169 -1 -43 -22 -57 -24 -114 -19 -69 7 -111 -6 -139 -40 -10 -11 -31 -16 -75
-16 -116 0 -152 -46 -182 -231 -10 -57 -18 -105 -19 -107 -5 -6 -199 -31 -206
-26 -4 2 -17 37 -29 76 -51 171 -153 337 -243 399 -61 42 -136 50 -184 20z
m165 -31 c40 -30 40 -37 2 -37 -49 0 -82 -32 -107 -104 -96 -284 53 -917 249
-1060 23 -16 52 -29 65 -29 34 0 29 -25 -11 -49 -42 -26 -76 -27 -126 -1 l-39
20 -33 -20 c-18 -11 -43 -20 -56 -20 -30 0 -91 32 -121 64 -18 19 -28 23 -42
16 -75 -40 -160 49 -239 248 -64 163 -83 268 -84 462 -1 149 1 170 21 212 21
46 62 78 100 78 12 0 24 15 36 45 25 61 68 95 118 95 32 0 41 5 53 28 15 29
52 66 76 75 31 13 107 0 138 -23z m2188 11 c17 -10 41 -35 53 -55 19 -31 28
-36 60 -36 50 0 79 -23 107 -86 17 -39 29 -54 43 -54 68 0 107 -60 122 -186
29 -261 -88 -686 -221 -798 -34 -28 -87 -35 -108 -14 -8 8 -22 1 -56 -30 -57
-52 -101 -62 -153 -33 l-38 22 -40 -21 c-51 -26 -84 -25 -125 3 -41 27 -49 47
-20 47 119 0 266 266 328 595 12 64 17 143 17 270 0 165 -2 185 -23 237 -27
67 -52 88 -104 88 -21 0 -38 3 -38 8 0 4 19 20 42 35 50 32 109 36 154 8z
m-985 -82 c34 -24 35 -39 14 -159 -9 -47 -18 -161 -22 -254 -6 -164 -7 -171
-31 -193 -27 -25 -74 -30 -90 -10 -7 8 -6 29 1 64 9 44 8 55 -8 79 -16 25 -16
28 -1 39 21 16 20 22 -6 28 -21 6 -21 8 -15 164 4 87 11 177 15 200 9 40 8 42
-10 32 -26 -14 -38 -1 -13 14 53 32 119 30 166 -4z m-1172 -13 c46 -24 92 -85
137 -181 53 -114 79 -204 65 -218 -16 -16 -26 -1 -56 92 -45 141 -112 257
-163 281 -24 10 -29 9 -49 -14 -13 -15 -28 -57 -38 -103 -20 -93 -24 -107 -30
-101 -9 9 15 160 31 194 9 19 28 41 43 49 32 18 27 18 60 1z m2038 -1 c27 -19
58 -102 67 -177 7 -69 -10 -88 -19 -21 -15 106 -49 183 -81 183 -47 0 -146
-161 -196 -317 -20 -66 -38 -87 -52 -65 -7 12 47 170 82 237 42 83 76 126 120
152 44 27 51 28 79 8z m-1118 -23 c27 -26 28 -34 35 -152 4 -69 12 -181 17
-250 l11 -124 -27 -23 c-28 -24 -83 -31 -101 -13 -6 6 -9 32 -6 59 2 28 -1 58
-8 72 -11 19 -10 25 2 33 14 8 14 11 -2 25 -12 11 -24 55 -39 146 -26 155 -25
145 -15 169 5 13 4 17 -3 13 -18 -11 -35 17 -20 35 37 47 115 52 156 10z m448
11 c40 -19 89 -80 98 -125 10 -42 -8 -56 -32 -25 -22 29 -50 23 -29 -5 7 -10
16 -15 19 -11 10 9 116 -75 138 -110 38 -63 20 -297 -30 -396 -54 -104 -254
-230 -402 -253 -77 -11 -101 -8 -183 27 -17 8 -17 7 -1 -25 16 -32 16 -33 -1
-25 -11 4 -50 11 -89 16 -83 9 -132 28 -179 69 -71 63 -141 205 -111 230 18
15 172 70 196 70 12 0 33 -8 47 -19 15 -10 51 -22 80 -26 44 -6 52 -10 47 -24
-18 -41 -15 -53 4 -23 22 34 22 34 80 27 71 -8 109 8 141 60 22 36 30 38 128
39 12 0 22 4 22 8 0 16 22 8 41 -14 l18 -23 1 34 c0 60 19 95 62 116 l40 19
-49 16 c-133 43 -219 154 -193 250 13 49 21 53 67 41 34 -9 36 -9 19 4 -11 8
-32 15 -48 15 -31 0 -35 14 -16 55 14 30 61 34 115 8z m-670 -59 c16 -22 56
-201 49 -219 -3 -8 -1 -17 3 -19 18 -12 21 -69 5 -88 -36 -39 -98 -14 -139 57
-36 61 -31 62 26 5 28 -28 54 -48 59 -45 12 7 10 75 -2 75 -5 0 -7 4 -4 9 4 5
-4 7 -16 3 -14 -3 -19 -1 -14 6 4 6 -4 33 -17 59 -13 26 -30 65 -36 86 -13 40
-20 44 -39 25 -9 -9 -12 -9 -12 3 0 56 103 88 137 43z m531 -207 c6 -6 14 -25
18 -41 4 -17 20 -36 40 -48 24 -14 34 -27 34 -45 0 -31 -60 -93 -89 -93 -19 0
-21 6 -21 53 0 28 -3 82 -7 120 -6 66 1 83 25 54z m-1137 -67 c22 -12 26 -32
5 -24 -20 8 -36 -27 -36 -78 0 -58 36 -194 62 -237 l21 -33 18 23 19 24 0 -25
c0 -15 -5 -31 -12 -38 -47 -47 -127 65 -148 208 -10 69 4 161 27 177 20 16 20
16 44 3z m1819 0 c62 -33 43 -257 -30 -358 -35 -48 -62 -54 -86 -17 -19 29
-12 44 11 25 23 -19 40 1 65 73 23 67 37 189 26 231 -5 22 -11 26 -29 20 -22
-7 -22 -6 -3 15 22 24 21 24 46 11z m-1282 -54 c28 -26 33 -36 22 -40 -8 -2
-80 -14 -160 -25 -199 -28 -351 -61 -357 -78 -14 -36 15 -38 155 -11 156 31
386 68 420 68 26 0 30 -26 5 -34 -10 -2 -52 -8 -93 -11 -89 -8 -213 -27 -368
-56 -126 -25 -129 -24 -151 40 -16 50 -14 89 7 99 34 18 371 79 445 81 29 1
45 -6 75 -33z m1127 -22 c50 -10 96 -22 103 -27 29 -22 4 -144 -31 -152 -30
-7 -200 29 -205 43 -5 16 19 15 116 -5 73 -15 84 -15 92 -3 6 8 8 19 7 25 -2
5 -50 21 -108 35 -100 24 -104 26 -107 53 -5 40 5 59 25 53 10 -2 59 -13 108
-22z m-2339 -243 c-6 -50 -4 -61 15 -85 25 -32 18 -47 -11 -21 -21 19 -50 101
-50 141 0 12 7 30 17 39 15 16 17 16 26 0 5 -10 6 -43 3 -74z m3174 20 c0 -49
-34 -132 -57 -139 -19 -6 -16 17 7 45 22 28 26 58 10 68 -10 6 -4 68 7 88 12
21 33 -19 33 -62z m-855 -162 c0 -169 2 -199 19 -231 34 -69 77 -49 156 70 63
94 66 97 46 47 -25 -58 -74 -131 -108 -160 -72 -61 -126 -11 -149 137 -11 72
-7 307 6 328 4 6 12 9 18 7 9 -3 12 -60 12 -198z m-1471 169 c13 -50 6 -314
-10 -367 -17 -58 -52 -101 -82 -101 -37 0 -85 45 -124 115 -48 88 -49 106 -2
35 104 -160 159 -159 186 3 9 59 4 291 -9 323 -3 9 1 14 15 14 12 0 22 -9 26
-22z m990 -380 c10 -38 7 -408 -4 -428 -15 -28 -147 -43 -326 -38 -82 2 -155
7 -162 12 -15 9 -17 422 -3 445 8 12 18 13 48 5 l38 -9 12 -108 c16 -149 20
-157 22 -42 2 153 -8 141 134 148 67 3 145 12 172 20 28 8 53 15 56 16 4 0 9
-9 13 -21z"/>
<path d="M3341 5368 c-33 -30 -59 -95 -76 -184 -8 -42 -15 -80 -15 -85 0 -5
18 -8 39 -6 40 2 40 2 47 52 14 104 42 171 86 209 l42 36 -50 0 c-38 0 -56 -5
-73 -22z"/>
<path d="M3176 5247 c-20 -30 -42 -92 -51 -146 -7 -40 -6 -43 13 -37 36 12 52
-3 52 -48 0 -53 26 -262 44 -359 8 -41 29 -117 46 -168 l31 -94 -21 -17 c-12
-10 -31 -18 -42 -18 -18 0 -17 -5 14 -61 71 -131 160 -200 213 -165 l25 16
-55 68 c-61 76 -113 173 -145 277 -70 226 -98 506 -66 663 9 45 19 89 22 97
11 27 -62 20 -80 -8z"/>
<path d="M3017 5103 c-8 -16 -17 -37 -21 -49 -5 -18 -3 -20 22 -16 l29 4 7
-139 c8 -150 29 -270 77 -432 17 -56 28 -109 25 -117 -3 -8 -17 -14 -31 -14
l-25 0 39 -62 c43 -69 84 -100 119 -91 12 3 22 9 22 14 0 5 -20 46 -44 92 -57
104 -86 183 -122 327 -26 107 -28 129 -28 313 l0 197 -28 0 c-20 0 -31 -8 -41
-27z"/>
<path d="M3435 4410 c-3 -5 -20 -10 -36 -10 l-29 0 21 -42 c77 -153 205 -261
275 -234 13 5 7 13 -29 35 -52 34 -111 109 -156 199 -33 65 -36 68 -46 52z"/>
<path d="M5591 5367 c45 -30 75 -86 89 -166 17 -97 17 -97 55 -108 l35 -11 0
36 c0 51 -26 155 -50 202 -27 53 -55 70 -114 70 l-49 0 34 -23z"/>
<path d="M5770 5266 c0 -3 8 -35 17 -73 12 -48 17 -111 17 -213 0 -294 -89
-595 -226 -767 -28 -35 -49 -65 -47 -67 41 -35 92 -22 151 40 60 63 128 187
101 183 -27 -4 -52 3 -57 17 -3 9 10 66 29 128 34 110 75 338 75 421 0 23 3
64 6 90 7 45 8 47 35 41 27 -5 29 -4 29 28 0 45 -28 130 -52 156 -16 17 -78
30 -78 16z"/>
<path d="M5936 5108 c4 -18 7 -100 7 -183 0 -229 -50 -440 -148 -621 -49 -90
-53 -109 -30 -118 34 -13 90 31 134 104 27 45 26 50 -3 50 -14 0 -27 4 -30 8
-3 5 6 44 20 88 51 158 75 291 81 452 l6 154 28 -6 c26 -5 29 -3 29 19 0 31
-37 71 -73 79 -28 7 -29 6 -21 -26z"/>
<path d="M5556 4373 c-39 -82 -106 -170 -157 -206 -41 -28 -49 -38 -36 -43 42
-16 90 7 157 74 62 64 139 185 123 195 -5 3 -22 8 -38 11 -28 6 -32 3 -49 -31z"/>
<path d="M4593 4873 c9 -2 23 -2 30 0 6 3 -1 5 -18 5 -16 0 -22 -2 -12 -5z"/>
<path d="M4880 5186 c0 -2 8 -10 18 -17 15 -13 16 -12 3 4 -13 16 -21 21 -21
13z"/>
<path d="M4791 5144 c-1 -26 6 -35 48 -62 54 -35 64 -38 79 -19 8 9 2 12 -24
13 -38 1 -90 42 -97 78 -3 14 -5 11 -6 -10z"/>
<path d="M7827 4493 c-8 -13 -31 -313 -24 -319 3 -3 42 -8 86 -11 l81 -6 0 31
c0 17 4 33 10 37 11 7 402 -25 413 -35 4 -3 -127 -48 -290 -99 -164 -51 -305
-97 -313 -101 -19 -11 -41 -217 -25 -230 5 -4 45 -11 88 -15 l77 -7 0 35 c0
43 12 49 87 37 32 -5 187 -21 346 -36 l287 -27 0 -39 c0 -22 5 -41 13 -43 6
-3 46 -6 87 -7 l75 -3 16 155 c8 85 12 159 9 163 -11 13 -149 24 -160 13 -5
-5 -10 -20 -10 -32 0 -13 -4 -25 -8 -28 -8 -5 -344 21 -392 31 -36 7 -30 9
293 109 174 53 292 95 297 104 4 8 10 45 13 82 l6 67 -32 6 c-26 4 -485 47
-787 73 l-75 7 3 38 c2 24 -1 38 -10 41 -29 10 -157 17 -161 9z"/>
<path d="M560 4449 c-200 -15 -372 -32 -381 -36 -9 -4 -38 -33 -64 -63 -41
-48 -46 -59 -41 -90 3 -19 8 -84 11 -145 9 -169 9 -168 70 -221 l55 -46 238
17 c130 9 241 20 245 24 7 7 -9 260 -17 268 -2 3 -41 1 -85 -3 l-81 -7 0 -52
0 -52 -117 -7 c-64 -4 -119 -3 -123 1 -4 4 -11 54 -15 110 l-7 102 44 5 c75 9
679 49 683 45 2 -2 7 -52 11 -111 l7 -108 -30 0 c-17 0 -51 -3 -77 -6 l-46 -7
0 -71 c0 -39 4 -77 9 -85 7 -11 30 -12 117 -7 108 7 109 8 147 44 21 20 43 45
49 56 10 19 -8 349 -21 372 -3 6 -30 32 -59 57 -63 56 -19 55 -522 16z"/>
<path d="M1235 3460 c-11 -4 -41 -17 -68 -29 l-47 -20 14 -36 c14 -32 13 -36
-2 -44 -34 -18 -642 -271 -650 -271 -5 0 -15 14 -22 30 -7 17 -16 30 -21 30
-15 0 -139 -52 -144 -60 -5 -8 8 -41 115 -300 40 -96 83 -200 95 -230 13 -30
28 -56 34 -58 15 -5 361 139 361 150 0 4 -14 39 -31 78 -36 80 -26 78 -146 29
-39 -16 -78 -29 -87 -29 -8 0 -20 16 -27 37 -7 21 -23 60 -35 88 -13 27 -24
55 -24 61 0 6 64 38 142 70 78 32 145 60 149 62 3 2 26 -42 49 -98 23 -55 44
-100 47 -100 5 0 146 60 151 64 1 2 -14 45 -34 95 -20 50 -34 97 -31 104 6 15
185 92 194 84 6 -6 70 -152 79 -180 4 -14 -8 -23 -60 -47 -36 -16 -66 -31 -66
-32 0 -6 55 -133 62 -144 6 -8 49 6 143 45 75 32 140 62 146 68 6 6 -5 43 -34
109 -24 54 -79 186 -123 292 -80 196 -84 201 -129 182z"/>
<path d="M3031 3334 c-19 -24 -21 -40 -21 -184 0 -144 2 -160 21 -184 19 -24
27 -26 90 -26 87 0 109 17 109 86 0 45 0 45 -32 42 -28 -2 -34 -8 -36 -30 -3
-25 -7 -28 -43 -28 l-39 0 0 141 0 140 42 -3 c38 -3 43 -6 43 -28 0 -21 5 -26
33 -28 32 -3 32 -3 32 41 0 66 -27 87 -112 87 -60 0 -69 -3 -87 -26z"/>
<path d="M3270 3331 c0 -16 6 -31 15 -35 12 -4 15 -30 15 -146 0 -118 -2 -140
-15 -140 -11 0 -15 -11 -15 -35 l0 -36 123 3 122 3 3 73 3 72 -36 0 c-34 0
-35 -1 -35 -40 l0 -40 -45 0 -46 0 3 63 3 62 40 0 c38 0 40 2 43 32 3 31 2 32
-40 35 -43 3 -43 3 -46 46 l-3 42 45 0 c42 0 46 -2 46 -25 0 -14 5 -25 10 -26
55 -6 55 -7 58 59 l3 62 -126 0 -125 0 0 -29z"/>
<path d="M3550 3330 c0 -18 6 -33 15 -36 23 -9 22 -279 -1 -288 -10 -4 -14
-15 -12 -33 l3 -28 120 0 120 0 3 78 3 78 -33 -3 c-31 -3 -33 -5 -36 -45 -3
-43 -3 -43 -43 -43 l-39 0 0 139 c0 111 3 141 15 151 8 7 15 23 15 36 0 23 -3
24 -65 24 l-65 0 0 -30z"/>
<path d="M3840 3330 c0 -18 6 -33 15 -36 12 -5 15 -31 15 -144 0 -113 -3 -139
-15 -144 -9 -3 -15 -18 -15 -36 l0 -30 125 0 125 0 0 75 0 75 -29 0 c-26 0
-30 -4 -36 -40 -7 -39 -8 -40 -46 -40 l-40 0 3 63 3 62 38 3 c34 3 37 6 37 33
0 27 -2 29 -40 29 l-40 0 0 45 0 45 39 0 c36 0 40 -3 43 -27 3 -24 8 -28 33
-28 30 0 30 0 33 63 l3 62 -126 0 -125 0 0 -30z"/>
<path d="M4250 3331 c0 -17 5 -33 10 -36 12 -8 14 -285 1 -285 -11 0 -20 -46
-11 -60 4 -7 29 -10 61 -8 51 3 54 5 57 31 2 18 -2 29 -12 33 -13 5 -16 22
-16 81 0 41 4 72 8 69 4 -2 25 -48 46 -100 22 -53 42 -96 45 -96 3 0 23 45 44
100 21 55 42 100 48 100 16 0 11 -123 -7 -148 -8 -12 -14 -32 -12 -45 3 -20 9
-22 58 -22 53 0 55 1 58 28 2 18 -2 29 -12 33 -23 9 -24 275 -1 294 8 7 15 23
15 37 0 23 -3 24 -47 21 l-47 -3 -38 -95 c-65 -163 -56 -154 -84 -85 -14 33
-37 88 -51 123 l-26 62 -44 0 c-41 0 -43 -1 -43 -29z"/>
<path d="M4691 3334 c-19 -25 -21 -40 -21 -189 0 -156 1 -162 23 -183 19 -18
35 -22 88 -22 56 0 69 4 87 23 21 22 22 33 22 184 0 147 -2 162 -21 187 -19
24 -27 26 -89 26 -62 0 -70 -2 -89 -26z m129 -184 l0 -140 -40 0 -40 0 0 140
0 140 40 0 40 0 0 -140z"/>
<path d="M4920 3331 c0 -16 6 -31 15 -35 23 -8 22 -281 -1 -294 -9 -5 -14 -18
-12 -33 3 -24 5 -24 126 -27 l122 -3 0 81 0 81 -32 -3 c-31 -3 -33 -6 -36 -44
-3 -40 -5 -42 -38 -46 -19 -2 -37 -2 -39 1 -3 2 -5 66 -5 142 0 112 3 138 15
143 9 3 15 18 15 36 l0 30 -65 0 -65 0 0 -29z"/>
<path d="M5207 3353 c-13 -13 -7 -43 13 -60 18 -16 20 -30 20 -144 0 -100 -3
-129 -15 -139 -8 -7 -15 -25 -15 -41 0 -29 1 -29 60 -29 l60 0 0 35 c0 24 -5
35 -15 35 -13 0 -15 22 -15 139 0 114 3 140 15 145 9 3 15 18 15 36 0 30 0 30
-58 30 -32 0 -62 -3 -65 -7z"/>
<path d="M5370 3326 c0 -21 6 -36 15 -40 12 -4 15 -29 15 -136 0 -107 -3 -132
-15 -136 -9 -4 -15 -19 -15 -40 l0 -34 60 0 60 0 0 34 c0 19 -5 36 -12 38 -14
5 -25 148 -12 148 5 0 22 -33 37 -73 51 -130 59 -142 92 -142 l30 0 3 170 c2
137 5 171 17 178 8 4 15 21 15 37 l0 30 -65 0 c-62 0 -65 -1 -65 -24 0 -14 7
-31 15 -40 15 -15 25 -139 12 -152 -6 -6 -57 95 -57 114 0 5 -9 30 -20 56 -20
45 -22 46 -65 46 -44 0 -45 0 -45 -34z"/>
<path d="M5805 3348 c-2 -7 -22 -85 -45 -173 -24 -93 -47 -163 -55 -168 -8 -4
-15 -21 -15 -37 0 -30 0 -30 60 -30 l60 0 0 35 c0 19 -4 35 -10 35 -5 0 -10 7
-10 15 0 21 95 21 104 0 3 -8 -2 -18 -10 -23 -9 -5 -14 -19 -12 -33 3 -22 7
-24 63 -24 56 0 60 2 63 24 3 16 -3 30 -15 38 -12 9 -33 68 -63 181 l-46 167
-32 3 c-20 2 -34 -2 -37 -10z m53 -167 c7 -21 12 -45 12 -53 0 -18 -40 -32
-54 -18 -9 9 11 110 23 110 4 0 13 -17 19 -39z"/>
<path d="M7650 3254 c-36 -14 -70 -30 -76 -35 -6 -5 -42 -76 -79 -159 l-68
-150 27 -74 27 -74 162 -75 c89 -41 263 -121 385 -178 l224 -102 66 21 c37 12
72 25 78 30 6 4 44 76 84 160 l73 154 -29 76 -29 76 -384 178 c-212 98 -387
178 -390 177 -3 0 -35 -12 -71 -25z m123 -190 c135 -57 563 -257 577 -270 12
-12 8 -26 -30 -104 -24 -49 -49 -90 -55 -90 -24 0 -640 290 -643 303 -3 13 76
187 85 187 2 0 32 -12 66 -26z"/>
<path d="M3290 2686 c0 -2 -20 -79 -44 -171 -28 -103 -51 -171 -61 -179 -10
-7 -15 -22 -13 -37 3 -22 8 -24 59 -27 65 -3 81 13 54 55 -22 32 -12 43 40 43
42 0 68 -15 48 -29 -14 -9 -23 -39 -17 -56 5 -11 22 -15 65 -15 59 0 59 0 59
30 0 16 -6 33 -14 37 -11 6 -106 317 -106 347 0 3 -16 6 -35 6 -19 0 -35 -2
-35 -4z m58 -198 c10 -50 8 -53 -33 -48 -29 3 -29 4 -10 60 19 59 29 56 43
-12z"/>
<path d="M3520 2661 c0 -16 6 -31 15 -35 12 -4 15 -30 15 -145 0 -114 -3 -140
-15 -145 -9 -3 -15 -18 -15 -36 l0 -30 60 0 c59 0 60 0 60 28 0 15 -4 32 -9
37 -8 9 -15 59 -12 93 3 34 31 3 62 -70 35 -81 37 -83 70 -83 28 0 35 4 37 24
2 14 -3 30 -11 36 -8 6 -25 30 -37 54 l-23 42 27 28 c24 25 26 34 26 112 0
116 -4 119 -143 119 l-107 0 0 -29z m178 -93 l3 -58 -41 0 -40 0 0 53 c0 63 4
69 45 65 29 -3 30 -5 33 -60z"/>
<path d="M3834 2669 c-16 -18 -19 -40 -22 -166 -4 -162 -2 -179 28 -211 17
-18 32 -22 83 -22 86 0 107 16 107 81 0 48 -1 49 -30 49 -27 0 -30 -3 -30 -30
0 -29 -2 -30 -45 -30 l-45 0 0 140 c0 139 0 140 24 146 41 10 66 -4 66 -37 0
-25 4 -29 29 -29 34 0 46 22 35 67 -13 53 -30 63 -109 63 -60 0 -75 -3 -91
-21z"/>
<path d="M4070 2661 c0 -16 6 -31 15 -35 23 -8 22 -286 -1 -286 -11 0 -14 -8
-12 -32 3 -33 4 -33 61 -36 l57 -3 0 30 c0 16 -4 33 -10 36 -5 3 -10 33 -10
66 l0 59 39 0 c33 0 40 -4 45 -26 8 -30 -3 -94 -15 -94 -5 0 -9 -16 -9 -35 l0
-35 60 0 60 0 0 35 c0 24 -5 35 -15 35 -13 0 -15 22 -15 139 0 114 3 140 15
145 9 3 15 18 15 36 l0 30 -60 0 -60 0 0 -30 c0 -16 5 -30 10 -30 6 0 10 -25
10 -55 l0 -55 -40 0 -40 0 0 55 c0 30 5 55 10 55 6 0 10 14 10 30 l0 30 -60 0
c-60 0 -60 0 -60 -29z"/>
<path d="M4390 2661 c0 -16 6 -31 15 -35 12 -4 15 -30 15 -141 0 -111 -3 -137
-15 -141 -9 -4 -15 -19 -15 -40 l0 -34 60 0 60 0 0 30 c0 18 -6 33 -15 36 -12
5 -15 31 -15 145 0 115 3 141 15 145 9 4 15 19 15 35 0 29 0 29 -60 29 -60 0
-60 0 -60 -29z"/>
<path d="M4550 2661 c0 -16 6 -31 15 -35 12 -4 15 -30 15 -146 0 -118 -2 -140
-15 -140 -10 0 -15 -11 -15 -35 l0 -35 105 0 c148 0 145 -5 145 210 0 218 5
210 -141 210 l-109 0 0 -29z m164 -37 c14 -5 16 -28 16 -145 l0 -139 -40 0
-40 0 0 138 c0 76 3 142 7 145 8 9 36 9 57 1z"/>
<path d="M4846 2665 c-13 -20 -16 -54 -16 -188 0 -158 1 -164 23 -185 19 -18
35 -22 86 -22 52 0 66 4 86 25 25 24 25 27 25 188 0 158 -1 164 -23 185 -19
18 -35 22 -94 22 -64 0 -72 -2 -87 -25z m132 -183 l3 -143 -42 3 -42 3 1 130
c1 72 2 136 2 143 0 9 12 12 38 10 l37 -3 3 -143z"/>
<path d="M5080 2667 c0 -14 7 -30 15 -37 23 -19 22 -290 -1 -290 -11 0 -14 -8
-12 -32 3 -33 4 -33 61 -36 l57 -3 0 35 c0 19 -5 36 -10 38 -7 2 -10 32 -8 78
3 85 0 89 62 -65 30 -75 34 -80 61 -80 l30 0 3 173 c2 141 5 174 17 178 9 4
15 19 15 36 l0 29 -62 -3 c-53 -3 -63 -6 -66 -22 -3 -11 3 -25 12 -32 14 -10
16 -27 14 -90 l-3 -79 -46 110 -45 110 -47 3 c-44 3 -47 2 -47 -21z"/>
<path d="M5511 2658 c-5 -18 -27 -97 -47 -175 -26 -99 -41 -143 -51 -143 -10
0 -13 -10 -11 -32 3 -33 4 -33 61 -36 l57 -3 0 30 c0 16 -4 33 -10 36 -5 3
-10 13 -10 21 0 10 13 14 49 14 54 0 73 -14 46 -34 -10 -7 -16 -22 -13 -37 3
-22 7 -24 63 -24 55 0 60 2 63 23 2 14 -4 31 -16 42 -12 12 -34 76 -63 184
l-44 166 -32 0 c-27 0 -33 -5 -42 -32z m64 -170 l7 -48 -32 0 c-30 0 -31 1
-25 33 20 91 38 96 50 15z"/>
<path d="M1693 2436 l-58 -54 23 -24 c12 -13 22 -29 22 -35 0 -8 -300 -284
-493 -453 l-38 -33 -23 22 c-12 11 -27 21 -33 21 -18 0 -113 -91 -113 -107 0
-9 41 -61 92 -117 50 -56 97 -107 104 -115 10 -11 23 -5 73 40 34 29 61 59 61
65 0 6 -9 19 -20 29 -11 10 -20 23 -19 29 0 6 24 31 52 55 29 24 94 84 146
133 52 48 96 86 99 84 2 -3 -17 -51 -43 -108 -26 -57 -71 -158 -100 -224 -30
-67 -65 -145 -79 -173 -14 -27 -26 -58 -26 -68 1 -10 23 -42 50 -72 l48 -55
59 54 c121 111 449 408 527 477 l81 72 27 -25 c31 -30 36 -29 107 39 l51 49
-59 66 c-32 37 -83 93 -113 125 l-53 58 -63 -58 -64 -58 21 -27 c12 -14 21
-30 21 -35 0 -5 -29 -35 -65 -67 -36 -32 -105 -94 -153 -138 -47 -44 -88 -76
-89 -71 -2 5 29 76 68 159 169 352 199 425 186 444 -28 39 -135 150 -145 150
-6 0 -37 -24 -69 -54z"/>
<path d="M7011 2298 c-56 -66 -105 -126 -107 -132 -3 -7 13 -25 34 -40 22 -15
50 -38 63 -52 l23 -24 27 26 c18 17 32 23 41 18 7 -4 131 -109 275 -232 l262
-225 -19 -28 c-11 -15 -20 -31 -20 -37 0 -12 105 -102 119 -102 13 0 211 231
211 247 0 10 -75 78 -108 97 -9 5 -24 -1 -41 -18 l-28 -27 -264 226 c-145 124
-268 232 -273 239 -6 9 -2 23 12 41 21 27 22 29 5 48 -10 10 -38 36 -63 57
l-46 38 -103 -120z"/>
<path d="M6462 1777 c-45 -29 -142 -90 -215 -136 -72 -46 -169 -107 -214 -135
-46 -28 -83 -56 -83 -62 0 -11 165 -281 185 -303 11 -11 23 -7 75 25 33 20 63
41 66 46 3 5 -18 47 -46 94 -58 94 -58 91 12 129 26 14 28 14 42 -7 81 -130
270 -432 314 -502 l55 -89 -26 -22 c-15 -11 -27 -26 -27 -31 0 -6 18 -39 40
-72 31 -48 43 -60 57 -55 27 10 257 157 262 167 7 14 -73 136 -89 136 -9 0
-26 -7 -38 -16 -13 -9 -25 -14 -27 -13 -8 9 -359 569 -374 597 -9 17 -5 23 29
46 22 14 42 26 45 26 3 0 30 -38 61 -85 30 -47 57 -85 59 -85 4 0 126 77 133
85 7 7 -190 315 -202 315 -6 -1 -48 -24 -94 -53z"/>
<path d="M2585 1605 c-40 -71 -40 -90 0 -105 14 -5 25 -12 25 -15 0 -3 -34
-70 -76 -148 -42 -78 -119 -222 -171 -319 l-95 -177 -29 14 c-15 8 -32 15 -37
15 -9 0 -82 -129 -82 -144 0 -3 37 -24 81 -47 45 -22 169 -87 275 -145 107
-57 200 -104 208 -104 15 0 186 306 186 334 0 16 -105 76 -134 76 -8 0 -35
-39 -61 -87 -26 -49 -49 -90 -51 -92 -6 -6 -194 93 -194 102 0 9 128 255 143
274 7 10 32 0 101 -37 88 -47 94 -49 108 -33 17 20 68 117 68 131 0 5 -37 28
-82 52 -46 23 -87 46 -92 51 -9 8 57 148 86 186 8 9 32 1 98 -32 49 -24 91
-49 95 -54 3 -6 -8 -38 -25 -72 -17 -33 -30 -62 -28 -63 28 -21 142 -75 148
-71 13 8 140 252 140 268 0 12 -485 277 -551 302 -13 5 -26 -10 -54 -60z"/>
<path d="M3612 1156 c-18 -98 -17 -106 17 -106 17 0 33 -4 36 -10 6 -9 -11
-128 -71 -515 -35 -225 -29 -207 -68 -199 -28 5 -36 2 -45 -14 -14 -26 -26
-152 -15 -152 6 0 77 -11 159 -25 83 -13 153 -21 156 -17 7 8 29 116 29 143 0
13 -10 20 -35 25 -27 5 -35 11 -35 27 0 39 33 222 41 231 5 6 17 5 31 -1 24
-11 23 -7 128 -352 16 -52 33 -98 37 -102 11 -11 150 -32 167 -26 13 5 40 143
31 158 -3 4 -20 10 -38 13 -32 6 -33 8 -71 129 -20 67 -38 126 -39 132 -1 5
14 12 34 15 39 7 116 56 123 80 3 8 19 113 37 232 l31 218 -42 49 c-29 35 -51
52 -73 56 -67 12 -490 75 -501 75 -7 0 -17 -27 -24 -64z m373 -160 c59 -8 80
-16 79 -26 0 -8 -9 -75 -19 -147 -18 -132 -18 -133 -44 -133 -33 0 -190 26
-196 32 -3 3 5 68 17 146 l22 142 30 -1 c17 0 67 -6 111 -13z"/>
<path d="M5122 1196 c-29 -7 -54 -15 -56 -17 -2 -2 -16 -195 -31 -429 -32
-508 -31 -504 -68 -508 -20 -3 -27 -9 -27 -25 0 -26 25 -136 33 -143 6 -6 307
52 315 61 5 5 -16 143 -24 156 -3 5 -25 6 -49 2 -43 -5 -45 -4 -45 19 0 43 20
55 129 77 57 12 110 21 117 21 11 0 44 -48 44 -64 0 -3 -16 -8 -35 -12 -24 -4
-35 -12 -35 -23 0 -29 21 -136 28 -143 8 -8 313 50 325 62 9 8 -10 123 -24
152 -8 14 -15 15 -46 6 -21 -6 -39 -6 -41 -2 -2 5 -94 191 -205 414 -226 452
-202 421 -305 396z m159 -472 c38 -81 68 -148 66 -150 -6 -6 -150 -34 -154
-30 -6 5 8 326 14 326 2 0 36 -66 74 -146z"/>
</g>
</svg>
